<svg xmlns="http://www.w3.org/2000/svg" width="48" height="48" version="1"><rect width="12" height="4" x="18" y="4" fill="#d95656"/><path fill="#fff" d="m18 4v1h12v-1h-12z" opacity=".1"/><rect width="30" height="35" x="9" y="8" fill="#ba4242" rx="2" ry="2.059"/><rect width="36" height="8" x="6" y="5" fill="#d95656" rx="2" ry="2"/><rect width="4" height="20" x="22" y="18" opacity=".4" rx="1" ry="1"/><rect width="4" height="20" x="30" y="18" opacity=".4" rx="1" ry="1"/><rect width="4" height="20" x="14" y="18" opacity=".4" rx="1" ry="1"/><path fill="#fff" d="m8 5c-1.108 0-2 0.892-2 2v1c0-1.108 0.892-2 2-2h32c1.108 0 2 0.892 2 2v-1c0-1.108-0.892-2-2-2h-32z" opacity=".2"/><path d="m6 11v1c0 1.108 0.892 2 2 2h32c1.108 0 2-0.892 2-2v-1c0 1.108-0.892 2-2 2h-32c-1.108 0-2-0.892-2-2z" opacity=".2"/><path d="m9 40.941v1c0 1.141 0.892 2.059 2 2.059h26c1.108 0 2-0.918 2-2.0586v-1c0 1.141-0.892 2.059-2 2.059h-26c-1.108 0-2-0.918-2-2.059z" opacity=".2"/></svg>